HIERARCHY
ROOT Hips
{
    OFFSET 0.000000 0.000000 0.000000
    CHANNELS 6 Xposition Yposition Zposition Zrotation Yrotation Xrotation
    JOINT LeftUpLeg
    {
        OFFSET 1.363060 -1.794630 0.839290
        CHANNELS 3 Zrotation Yrotation Xrotation
        JOINT LeftLeg
        {
            OFFSET 2.448110 -6.726130 0.000000
            CHANNELS 3 Zrotation Yrotation Xrotation
            JOINT LeftFoot
            {
                OFFSET 2.562200 -7.039589 0.000000
                CHANNELS 3 Zrotation Yrotation Xrotation
                JOINT LeftToeBase
                {
                    OFFSET 0.157640 -0.433110 2.322550
                    CHANNELS 3 Zrotation Yrotation Xrotation
                    End Site
                    {
                        OFFSET 0.000000 0.000000 0.000000
                    }
                }
            }
        }
    }
    JOINT RightUpLeg
    {
        OFFSET -1.305520 -1.794630 0.839290
        CHANNELS 3 Zrotation Yrotation Xrotation
        JOINT RightLeg
        {
            OFFSET -2.542530 -6.985549 0.000000
            CHANNELS 3 Zrotation Yrotation Xrotation
            JOINT RightFoot
            {
                OFFSET -2.568260 -7.056230 0.000000
                CHANNELS 3 Zrotation Yrotation Xrotation
                JOINT RightToeBase
                {
                    OFFSET -0.164730 -0.452590 2.363150
                    CHANNELS 3 Zrotation Yrotation Xrotation
                    End Site
                    {
                        OFFSET 0.000000 0.000000 0.000000
                    }
                }
            }
        }
    }
    JOINT Spine
    {
        OFFSET 0.028270 2.035590 -0.193380
        CHANNELS 3 Zrotation Yrotation Xrotation
        JOINT Spine1
        {
            OFFSET 0.056720 2.048850 -0.042750
            CHANNELS 3 Zrotation Yrotation Xrotation
            JOINT Neck1
            {
                OFFSET -0.054170 1.746240 0.172020
                CHANNELS 3 Zrotation Yrotation Xrotation
                JOINT Head
                {
                    OFFSET 0.104070 1.761360 -0.123970
                    CHANNELS 3 Zrotation Yrotation Xrotation
                    End Site
                    {
                        OFFSET 0.000000 0.000000 0.000000
                    }
                }
            }
            JOINT LeftShoulder
            {
                OFFSET 0.000000 0.000000 0.000000
                CHANNELS 3 Zrotation Yrotation Xrotation
                JOINT LeftArm
                {
                    OFFSET 3.362410 1.200890 -0.311210
                    CHANNELS 3 Zrotation Yrotation Xrotation
                    JOINT LeftForeArm
                    {
                        OFFSET 4.983000 -0.000000 -0.000000
                        CHANNELS 3 Zrotation Yrotation Xrotation
                        JOINT LeftHand
                        {
                            OFFSET 3.483560 -0.000000 -0.000000
                            CHANNELS 3 Zrotation Yrotation Xrotation
                            End Site
                            {
                                OFFSET 0.000000 0.000000 0.000000
                            }
                        }
                    }
                }
            }
            JOINT RightShoulder
            {
                OFFSET 0.000000 0.000000 0.000000
                CHANNELS 3 Zrotation Yrotation Xrotation
                JOINT RightArm
                {
                    OFFSET -3.136600 1.374050 -0.404650
                    CHANNELS 3 Zrotation Yrotation Xrotation
                    JOINT RightForeArm
                    {
                        OFFSET -5.241900 -0.000000 -0.000000
                        CHANNELS 3 Zrotation Yrotation Xrotation
                        JOINT RightHand
                        {
                            OFFSET -3.444170 -0.000000 -0.000000
                            CHANNELS 3 Zrotation Yrotation Xrotation
                            End Site
                            {
                                OFFSET 0.000000 0.000000 0.000000
                            }
                        }
                    }
                }
            }
        }
    }
}
MOTION
Frames: 15
Frame Time: 0.016667
21.109341 16.975037 0.386771 -0.349145 -6.245841 25.734509 -10.176622 -4.142268 -47.269241 -27.412766 -25.919710 58.829102 -15.298731 35.629730 -24.159290 -0.341724 -2.395382 -0.348107 6.411760 6.249550 -45.950966 39.998238 22.402391 66.832756 21.700378 -51.182648 -47.409424 0.036558 0.145566 -1.370116 1.473629 -0.166278 9.301711 -1.469777 0.097311 -1.307093 0.118271 -6.234134 25.400812 -6.569244 -2.209546 9.543771 -4.704827 -8.027571 0.280534 -66.378349 -24.122175 43.421707 17.911028 -11.317322 -17.102184 9.489825 -2.796262 -13.419774 6.890664 9.070514 4.527324 58.743328 19.787466 33.341496 -7.423691 8.935788 -9.346675 -9.343472 1.748314 -8.325911 
21.094446 16.775835 0.290100 -0.327452 -6.364747 25.726759 -12.827101 -1.849415 -51.188854 -31.852310 -26.625708 67.051414 -15.075580 36.152733 -27.034208 -0.208223 -2.769379 1.048298 8.700346 4.485068 -49.621803 41.073898 20.577774 72.131767 19.426600 -50.533722 -46.842712 0.003620 0.010876 0.103386 1.364885 -0.160881 10.251380 -1.504562 0.121174 -1.382987 0.009437 -6.275556 24.758001 -6.454372 -2.204583 11.239209 -4.772671 -8.338224 0.169202 -65.497902 -25.120674 41.718346 17.390404 -11.387574 -15.959055 10.077792 -2.831625 -12.397402 6.948552 9.391788 4.628532 57.947456 20.878544 32.051624 -6.688862 8.611718 -8.815709 -9.999424 1.764048 -8.007714 
21.079985 16.677036 0.212497 -0.323358 -6.175012 25.825281 -11.277241 -3.182213 -52.082996 -31.449265 -24.126329 66.818779 -14.664524 35.420422 -27.662575 -0.201493 -2.996786 1.341781 7.587458 5.387679 -50.706387 43.179131 18.808207 73.418533 19.653482 -52.611908 -48.911774 0.050560 0.164882 0.285357 1.403732 -0.252971 11.232942 -1.450303 0.088856 -1.333166 -0.001330 -6.419222 24.851686 -6.975558 -2.236338 10.360671 -4.536294 -8.770642 0.240966 -64.826767 -25.903240 38.334846 17.170019 -12.681889 -15.766531 10.418037 -2.243908 -11.726887 6.785421 9.787780 4.771535 57.315983 21.862288 28.949203 -5.680233 8.787141 -7.289947 -8.556674 1.601479 -6.542238 
21.067673 16.618776 0.153560 -0.219316 -6.089605 25.838049 -10.380448 -4.154667 -52.276878 -31.919350 -23.279306 67.069504 -14.777335 36.006516 -28.597431 -0.225513 -3.041670 1.199497 7.489085 5.046945 -51.426773 45.016949 18.408752 74.805252 19.630548 -53.873447 -50.027229 0.014466 0.044380 0.312675 1.386827 -0.412396 12.146256 -1.490843 0.023434 -1.259640 -0.169077 -6.565379 25.131243 -7.419844 -2.252681 10.293180 -4.369298 -9.251926 0.400348 -64.634857 -26.540182 36.978161 17.534220 -12.609953 -16.299759 10.739261 -2.266716 -12.216776 6.602695 10.227190 4.880508 57.154381 22.712637 28.177076 -5.796403 8.769453 -7.943982 -9.053432 1.466204 -7.167141 
21.054501 16.567232 0.108019 -0.096488 -5.985641 26.265039 -10.261142 -4.667114 -52.978798 -29.623432 -22.132519 65.625923 -14.664101 33.803680 -27.744070 -0.208689 -2.896899 1.178396 9.022659 3.637493 -53.215065 46.931702 18.764250 78.100510 19.840433 -54.589943 -51.008041 -0.020133 -0.071401 0.386967 1.326380 -0.574145 12.537574 -1.491614 -0.063638 -1.216787 -1.148158 -6.880582 25.562937 -6.403973 -2.608367 10.734056 -4.180177 -9.288528 0.449311 -65.008408 -26.871984 37.900528 18.734196 -12.452881 -18.521933 10.739081 -1.776489 -14.067209 6.589236 10.431504 4.916518 57.434052 23.460121 30.406124 -6.785418 8.424747 -9.955162 -8.696983 1.286882 -8.985182 
21.039932 16.534384 0.068543 -0.039021 -5.934132 26.767576 -9.184389 -5.581314 -53.327351 -27.877203 -20.643198 63.604019 -14.559593 32.454056 -26.954351 -0.236159 -2.854678 0.918374 9.050178 3.564613 -54.132172 45.219028 18.096096 77.055565 18.664541 -52.693878 -49.469101 0.013777 0.044239 0.151260 1.310376 -0.554861 12.654248 -1.486789 -0.049527 -1.246202 -1.389943 -6.878123 26.340597 -6.210773 -2.528319 11.825297 -4.052620 -9.300127 0.434962 -65.565804 -27.146450 39.050228 19.433640 -12.318912 -20.001326 10.479942 -1.572936 -15.352630 6.513915 10.513031 4.856868 57.768784 23.899792 30.912050 -7.058300 8.618286 -10.721361 -8.614056 1.340895 -9.684710 
21.024107 16.524879 0.040034 -0.061986 -5.989905 27.254087 -8.233794 -6.104434 -53.540092 -26.966520 -19.802383 62.061947 -14.694446 31.784727 -26.437288 -0.272950 -2.907944 0.684038 8.435588 4.092996 -54.505707 43.968605 17.504576 75.404297 17.314503 -52.165176 -47.704617 0.020312 0.073738 -0.383680 1.272768 -0.499159 12.778691 -1.451911 -0.017657 -1.405686 -1.713116 -7.179348 26.871878 -6.786156 -2.690811 12.381571 -3.846946 -9.122228 0.222637 -66.379440 -27.077234 40.276199 20.043043 -12.424029 -20.922251 10.413782 -1.428035 -16.030155 6.371841 10.396637 4.744940 58.417912 24.255825 32.624855 -7.927068 8.900488 -12.024653 -10.555313 1.520316 -10.907652 
21.008888 16.543831 0.017256 -0.104812 -6.028520 27.625881 -7.503944 -6.390142 -53.615795 -27.198994 -19.759312 61.369347 -14.758210 32.277733 -26.312523 -0.291599 -2.875910 0.504586 7.149713 5.031317 -54.237358 43.271370 17.076887 73.267555 17.616350 -51.447014 -47.577759 -0.023884 -0.078929 -0.136147 1.339906 -0.303105 12.935454 -1.418339 0.094348 -1.490515 -0.971039 -7.207627 27.329596 -9.009129 -2.273174 12.692218 -3.740198 -9.074239 0.089268 -67.200050 -27.016426 41.408886 20.691145 -12.827659 -21.261202 10.366151 -1.556759 -16.079262 6.172988 10.245708 4.649425 59.063549 24.365128 32.144962 -7.860439 9.834479 -10.771345 -9.964959 1.907499 -9.599656 
20.997198 16.576263 -0.013537 -0.047698 -5.802496 28.532253 -6.867767 -7.080999 -54.167973 -26.480354 -19.679886 60.001259 -14.851405 32.099518 -25.648615 -0.276308 -2.753027 0.500602 7.342537 4.636603 -55.212780 43.542873 17.632704 73.174355 17.316368 -51.776131 -46.897079 -0.030011 -0.100398 -0.045705 1.441886 -0.353022 12.583062 -1.439847 0.049238 -1.658845 -1.929004 -7.350350 27.855869 -7.604146 -2.663699 12.268123 -3.360612 -8.876805 -0.171552 -68.255531 -26.435818 42.448849 21.949625 -13.812110 -21.752224 10.547772 -1.499283 -15.866711 5.970219 10.243762 4.531364 59.746952 24.354176 31.577713 -7.926218 10.697440 -9.570973 -10.957475 2.546906 -8.474732 
20.982962 16.632353 -0.028392 -0.060754 -6.325140 29.042965 -7.093732 -6.599854 -54.270020 -25.169334 -19.734381 58.376343 -15.000518 31.243259 -24.458929 -0.248861 -2.996052 0.965878 7.152879 5.015500 -55.343529 41.561413 17.774628 71.242470 16.506565 -49.744659 -44.819214 -0.106091 -0.356237 -0.148699 1.143872 -0.032147 12.468124 -1.375829 0.236434 -1.632611 -2.144696 -7.272774 27.948244 -7.526468 -2.562583 12.249573 -3.310034 -8.662405 -0.181067 -68.932060 -26.381308 42.773460 22.469580 -14.523066 -21.291592 10.623956 -1.920269 -15.098301 6.041799 10.261345 4.487055 60.272198 24.287037 31.028740 -7.723751 11.352184 -7.184978 -8.937799 2.884298 -5.981122 
20.975336 16.698458 -0.036168 -0.096944 -6.187644 29.327702 -7.300127 -6.531798 -54.016674 -23.497814 -19.933514 56.555462 -15.223604 30.163401 -22.928541 -0.299790 -2.704015 0.269030 7.486147 4.803640 -55.104633 39.650745 18.224205 69.431549 16.034550 -48.130127 -43.094574 -0.082951 -0.277772 -0.265361 1.245526 -0.127070 12.439956 -1.343644 0.165369 -1.558645 -2.290397 -7.159017 27.812099 -7.368039 -2.466187 12.464206 -3.327892 -8.639474 -0.131389 -69.375313 -26.426617 42.079742 22.319384 -15.078571 -20.427858 10.855773 -2.422652 -14.190827 6.126995 10.213987 4.508198 60.890961 24.362417 31.784075 -7.972956 11.567908 -6.580026 -9.082886 3.027886 -5.335064 
20.970367 16.759457 -0.056886 -0.044456 -6.121958 29.820080 -6.747093 -7.132740 -53.719250 -23.025053 -20.297665 55.035759 -15.572140 30.712393 -22.431841 -0.333316 -2.818545 0.119794 7.187648 5.048197 -55.021957 38.886753 18.773056 68.072701 16.159590 -47.920429 -42.236553 -0.113328 -0.380687 -0.428050 1.308444 -0.196598 12.238874 -1.381574 0.109461 -1.507300 -2.405385 -7.097179 27.636517 -7.370279 -2.380785 12.020780 -3.274964 -8.550220 -0.162277 -69.843575 -26.266447 41.760929 22.206171 -15.690244 -19.431973 11.059820 -2.860489 -13.109606 6.035506 10.153168 4.577060 61.507465 24.564222 32.091660 -8.000527 11.726036 -6.553935 -10.484562 3.281675 -5.450830 
20.963207 16.826193 -0.060007 -0.032391 -6.208624 29.661701 -6.988442 -6.996008 -52.830315 -21.328011 -20.349060 52.985485 -15.935718 29.754011 -21.041468 -0.331025 -2.782533 0.102427 6.716651 5.573975 -53.951973 37.179527 18.965675 65.810928 15.956995 -47.199677 -40.892513 -0.109993 -0.369302 -0.554331 1.253831 -0.165857 12.493192 -1.278411 0.130647 -1.480752 -2.223654 -6.858907 27.451328 -7.836783 -2.058461 11.653155 -3.309054 -8.437660 -0.151340 -70.303207 -26.035633 41.618584 22.339367 -15.984644 -19.555372 11.603174 -2.867107 -13.115691 6.178919 10.002813 4.576093 62.028481 24.427210 33.480030 -8.271304 11.594537 -6.921524 -10.453085 3.145372 -5.743474 
20.960077 16.881569 -0.071394 -0.035852 -6.267465 29.781616 -7.036820 -7.030340 -52.382294 -20.542616 -20.719604 51.704273 -16.060215 29.774441 -20.103893 -0.328398 -2.638478 -0.016768 6.982140 5.568694 -53.629417 35.533772 19.346743 64.369370 15.980118 -45.865818 -39.631538 -0.138177 -0.466463 -0.830998 1.271067 -0.132289 12.426476 -1.293044 0.145556 -1.476157 -2.090887 -6.794841 27.242918 -8.029178 -1.980224 11.401991 -3.345714 -8.438586 -0.156216 -70.696075 -25.781267 41.870754 22.177891 -15.862256 -19.047234 11.529666 -3.052867 -12.746510 6.174136 9.997414 4.550486 62.576744 24.201563 33.579742 -7.870427 11.590806 -6.496243 -9.941732 3.150692 -5.383290 
20.958508 16.928453 -0.084624 -0.013340 -6.487675 30.148916 -6.562144 -7.510844 -52.002754 -18.957485 -20.054371 49.450710 -16.237724 29.152084 -19.001728 -0.319890 -2.483706 -0.098624 6.832650 5.881737 -53.514618 34.885685 19.926832 63.344856 16.156364 -45.707268 -38.966660 -0.156159 -0.527525 -0.631976 1.167578 -0.079610 12.058040 -1.288754 0.176747 -1.451495 -2.117591 -6.655993 26.893042 -7.768940 -1.897519 11.342885 -3.381481 -8.349967 -0.115077 -71.045334 -25.636206 42.653782 22.179628 -15.209525 -19.058855 11.587365 -3.168806 -13.054085 6.212449 9.971009 4.525089 63.037231 24.065025 34.597237 -7.957433 11.396422 -6.712473 -10.287833 3.080333 -5.624777 
